<svg width="1331" height="561" xmlns="http://www.w3.org/2000/svg" xmlns:xlink="http://www.w3.org/1999/xlink" xml:space="preserve" overflow="hidden"><defs><clipPath id="clip0"><rect x="987" y="681" width="1331" height="561"/></clipPath></defs><g clip-path="url(#clip0)" transform="translate(-987 -681)"><path d="M1818.14 786.277C1816.81 811.903 1798.33 826.614 1773.89 821.439 1749.45 816.263 1732.35 794.056 1733.67 768.43 1734.99 742.804 1753.98 728.219 1778.42 733.363 1802.89 738.538 1819.46 760.651 1818.14 786.277M1842.95 893.173C1843.87 875.733 1831.14 858.796 1814.52 855.283L1770.52 845.998C1735.44 838.596 1708.41 802.556 1710.3 765.701L1712.67 719.562C1713.58 702.122 1700.82 685.154 1684.23 681.641 1667.63 678.128 1653.43 689.419 1652.54 706.859L1650.18 752.998C1646.5 824.638 1699 894.647 1767.28 909.075L1811.27 918.36C1827.87 921.873 1842.04 910.581 1842.95 893.173" fill="#287C45" fill-rule="evenodd"/><path d="M1558.77 748.961C1572.36 740.53 1581.18 753.398 1579.82 779.795 1578.47 806.129 1567.71 831.645 1554.11 840.045 1540.51 848.477 1531.73 835.042 1533.08 808.709 1534.41 782.312 1545.14 757.362 1558.77 748.961M1613.82 683.614C1604.56 689.34 1596.32 708.469 1595.4 726.372L1592.98 773.817C1591.03 811.666 1573.53 852.316 1553.98 864.397L1529.49 879.53C1520.24 885.256 1512 904.417 1511.08 922.319 1510.17 940.221 1516.94 950.1 1526.19 944.374L1550.68 929.241C1588.7 905.738 1622.72 826.737 1626.5 753.115L1628.92 705.669C1629.8 687.767 1623.04 677.92 1613.82 683.614" fill="#39B263" fill-rule="evenodd"/><path d="M1663.57 986.47C1640.76 981.661 1633.57 972.546 1646.38 964.625 1659.15 956.735 1684.99 954.378 1707.77 959.187 1730.57 963.996 1737.48 973.3 1724.71 981.189 1711.9 989.079 1686.38 991.279 1663.57 986.47M1558.42 977.229C1573.91 980.498 1593.5 978.832 1602.21 973.457L1625.24 959.25C1643.6 947.935 1685.24 944.351 1718.02 951.266L1759.06 959.941C1774.55 963.21 1794.2 961.544 1802.88 956.17 1811.59 950.795 1806.04 943.817 1790.55 940.548L1749.5 931.873C1685.81 918.389 1604.89 925.367 1569.15 947.369L1546.12 961.576C1537.41 966.951 1542.97 973.96 1558.42 977.229" fill="#174F2E" fill-rule="evenodd"/><path d="M1125.73 1155.36C1125.73 1103.46 1162.88 1066.73 1215.6 1066.73 1268.33 1066.73 1305.13 1102.77 1305.13 1155.36L1305.13 1237.57 1284.19 1237.57 1284.19 1196.46C1272.37 1226.12 1244.65 1241.94 1212.23 1241.94 1165.27 1241.97 1125.73 1208.6 1125.73 1155.36ZM1282.49 1154.35C1282.49 1115.95 1255.46 1087.64 1215.6 1087.64 1175.74 1087.64 1148.72 1115.95 1148.72 1154.35 1148.72 1192.75 1175.74 1221.05 1215.6 1221.05 1255.46 1221.05 1282.49 1192.75 1282.49 1154.35ZM1408.54 1087.64C1379.81 1087.64 1360.89 1103.15 1360.89 1137.84L1360.89 1237.57 1338.25 1237.57 1338.25 1137.84C1338.25 1090 1366.97 1066.73 1408.51 1066.73L1408.51 1087.64ZM1420.96 1154.35C1420.96 1103.81 1458.14 1066.73 1510.84 1066.73 1563.54 1066.73 1600.02 1103.81 1600.02 1154.35L1600.02 1161.77 1444.27 1161.77C1447.3 1196.49 1473.31 1221.09 1510.84 1221.09 1537.21 1221.09 1557.48 1210.3 1568.27 1191.08L1592.93 1191.08C1580.09 1221.75 1549.69 1241.97 1510.81 1241.97 1458.11 1241.97 1420.96 1204.89 1420.96 1154.35ZM1576.37 1141.55C1570.98 1107.87 1544.62 1087.64 1510.84 1087.64 1476.03 1087.64 1450.04 1108.87 1444.96 1141.55L1576.37 1141.55ZM1109.04 1213.95C1099.71 1218.51 1088.83 1221.05 1076.88 1221.05 1037.02 1221.05 1009.99 1192.75 1009.99 1154.35 1009.99 1115.95 1037.02 1087.64 1076.88 1087.64 1088.86 1087.64 1099.71 1090.19 1109.04 1094.75L1109.04 1071.92C1099.2 1068.59 1088.42 1066.76 1076.88 1066.76 1024.18 1066.76 987 1103.84 987 1154.38 987 1204.92 1024.15 1242 1076.88 1242 1088.45 1242 1099.24 1240.18 1109.04 1236.84L1109.04 1213.95ZM2277.76 1057.36 2277.76 1097.49C2277.76 1129.16 2260.86 1144.32 2235.53 1144.32 2210.18 1144.32 2193.31 1129.16 2193.31 1097.49L2193.31 1057.36 2153.1 1057.36 2153.1 1097.49C2153.1 1145.42 2177.45 1172.97 2215.45 1179.92L2215.45 1241.97 2255.65 1241.97 2255.65 1179.89C2293.65 1172.87 2318 1145.1 2318 1097.49L2318 1057.36 2277.76 1057.36ZM2131.34 1232.38 2131.34 1194.98 2106.14 1194.98C2089.59 1194.98 2078.11 1186.24 2078.11 1163.97L2078.11 1097.93 2118.76 1097.93 2118.76 1061.54 2078.11 1061.54 2078.11 1002.57 2037.9 1002.57 2037.9 1164C2037.9 1210.17 2065.62 1232.41 2106.14 1232.41L2131.34 1232.41ZM1631.43 1150.98C1631.43 1095.38 1664.55 1066.76 1713.87 1066.76 1763.19 1066.76 1796.3 1095.07 1796.3 1150.98L1796.3 1237.6 1756.09 1237.6 1756.09 1150.98C1756.09 1119.31 1739.19 1104.16 1713.87 1104.16 1688.51 1104.16 1671.64 1119.31 1671.64 1150.98L1671.64 1237.6 1631.43 1237.6 1631.43 1150.98ZM1829.45 1157.71 1829.45 1071.1 1869.66 1071.1 1869.66 1157.71C1869.66 1189.38 1886.56 1204.54 1911.88 1204.54 1937.24 1204.54 1954.11 1189.38 1954.11 1157.71L1954.11 1071.1 1994.32 1071.1 1994.32 1157.71C1994.32 1213.32 1961.2 1241.94 1911.88 1241.94 1862.56 1241.97 1829.45 1213.66 1829.45 1157.71ZM1945.72 1022.95C1945.72 1007.45 1956.88 996 1972.4 996 1987.91 996 1999.08 1007.45 1999.08 1022.95 1999.08 1038.46 1987.91 1049.56 1972.4 1049.56 1956.88 1049.56 1945.72 1038.43 1945.72 1022.95Z" fill-rule="evenodd"/><path d="M1125.73 1155.36C1125.73 1103.46 1162.88 1066.73 1215.6 1066.73 1268.33 1066.73 1305.13 1102.77 1305.13 1155.36L1305.13 1237.57 1284.19 1237.57 1284.19 1196.46C1272.37 1226.12 1244.65 1241.94 1212.23 1241.94 1165.27 1241.97 1125.73 1208.6 1125.73 1155.36ZM1282.49 1154.35C1282.49 1115.95 1255.46 1087.64 1215.6 1087.64 1175.74 1087.64 1148.72 1115.95 1148.72 1154.35 1148.72 1192.75 1175.74 1221.05 1215.6 1221.05 1255.46 1221.05 1282.49 1192.75 1282.49 1154.35ZM1408.54 1087.64C1379.81 1087.64 1360.89 1103.15 1360.89 1137.84L1360.89 1237.57 1338.25 1237.57 1338.25 1137.84C1338.25 1090 1366.97 1066.73 1408.51 1066.73L1408.51 1087.64ZM1420.96 1154.35C1420.96 1103.81 1458.14 1066.73 1510.84 1066.73 1563.54 1066.73 1600.02 1103.81 1600.02 1154.35L1600.02 1161.77 1444.27 1161.77C1447.3 1196.49 1473.31 1221.09 1510.84 1221.09 1537.21 1221.09 1557.48 1210.3 1568.27 1191.08L1592.93 1191.08C1580.09 1221.75 1549.69 1241.97 1510.81 1241.97 1458.11 1241.97 1420.96 1204.89 1420.96 1154.35ZM1576.37 1141.55C1570.98 1107.87 1544.62 1087.64 1510.84 1087.64 1476.03 1087.64 1450.04 1108.87 1444.96 1141.55L1576.37 1141.55ZM1109.04 1213.95C1099.71 1218.51 1088.83 1221.05 1076.88 1221.05 1037.02 1221.05 1009.99 1192.75 1009.99 1154.35 1009.99 1115.95 1037.02 1087.64 1076.88 1087.64 1088.86 1087.64 1099.71 1090.19 1109.04 1094.75L1109.04 1071.92C1099.2 1068.59 1088.42 1066.76 1076.88 1066.76 1024.18 1066.76 987 1103.84 987 1154.38 987 1204.92 1024.15 1242 1076.88 1242 1088.45 1242 1099.24 1240.18 1109.04 1236.84L1109.04 1213.95ZM2277.76 1057.36 2277.76 1097.49C2277.76 1129.16 2260.86 1144.32 2235.53 1144.32 2210.18 1144.32 2193.31 1129.16 2193.31 1097.49L2193.31 1057.36 2153.1 1057.36 2153.1 1097.49C2153.1 1145.42 2177.45 1172.97 2215.45 1179.92L2215.45 1241.97 2255.65 1241.97 2255.65 1179.89C2293.65 1172.87 2318 1145.1 2318 1097.49L2318 1057.36 2277.76 1057.36ZM2131.34 1232.38 2131.34 1194.98 2106.14 1194.98C2089.59 1194.98 2078.11 1186.24 2078.11 1163.97L2078.11 1097.93 2118.76 1097.93 2118.76 1061.54 2078.11 1061.54 2078.11 1002.57 2037.9 1002.57 2037.9 1164C2037.9 1210.17 2065.62 1232.41 2106.14 1232.41L2131.34 1232.41ZM1631.43 1150.98C1631.43 1095.38 1664.55 1066.76 1713.87 1066.76 1763.19 1066.76 1796.3 1095.07 1796.3 1150.98L1796.3 1237.6 1756.09 1237.6 1756.09 1150.98C1756.09 1119.31 1739.19 1104.16 1713.87 1104.16 1688.51 1104.16 1671.64 1119.31 1671.64 1150.98L1671.64 1237.6 1631.43 1237.6 1631.43 1150.98ZM1829.45 1157.71 1829.45 1071.1 1869.66 1071.1 1869.66 1157.71C1869.66 1189.38 1886.56 1204.54 1911.88 1204.54 1937.24 1204.54 1954.11 1189.38 1954.11 1157.71L1954.11 1071.1 1994.32 1071.1 1994.32 1157.71C1994.32 1213.32 1961.2 1241.94 1911.88 1241.94 1862.56 1241.97 1829.45 1213.66 1829.45 1157.71ZM1945.72 1022.95C1945.72 1007.45 1956.88 996 1972.4 996 1987.91 996 1999.08 1007.45 1999.08 1022.95 1999.08 1038.46 1987.91 1049.56 1972.4 1049.56 1956.88 1049.56 1945.72 1038.43 1945.72 1022.95Z" fill-rule="evenodd"/></g></svg>